<svg width="100" height="100" viewBox="0 0 100 100" xmlns="http://www.w3.org/2000/svg" fill="none">
  <!-- Background Circle -->
  <circle cx="50" cy="50" r="48" fill="#FFD700" stroke="#E8B923" stroke-width="4"/>
  
  <!-- Apple Shape -->
  <path d="M40 40 Q35 30 45 28 Q50 28 53 34 Q56 28 61 28 Q70 30 65 40 Q58 50 50 50 Q42 50 40 40Z" fill="#FF6347"/>
  
  <!-- Leaf on Apple -->
  <path d="M50 26 Q49 22 54 21 Q55 23 54 26 Q54 27 51 27" fill="#32CD32"/>
  
  <!-- Checkmark -->
  <path d="M42 55 L48 61 L62 47" stroke="#32CD32" stroke-width="4" stroke-linecap="round" stroke-linejoin="round"/>
  
  <!-- Fork and Knife -->
  <rect x="30" y="50" width="3" height="15" fill="#555555"/>
  <rect x="33" y="50" width="3" height="5" fill="#555555"/>
  <rect x="67" y="50" width="3" height="15" fill="#555555"/>
  <circle cx="68.5" cy="53" r="1" fill="#555555"/>
  
  <!-- Text -->
  <text x="50" y="85" font-size="10" fill="#333" font-family="Arial, sans-serif" text-anchor="middle">Diet Helper</text>
</svg>